{
    "asset" : {
        "generator" : "Khronos glTF Blender I/O v3.2.40",
        "version" : "2.0"
    },
    "scene" : 0,
    "scenes" : [
        {
            "extras" : {
                "snow" : {
                    "height" : 0.10000000149011612,
                    "coverage" : 100
                }
            },
            "name" : "Scene",
            "nodes" : [
                0
            ]
        }
    ],
    "nodes" : [
        {
            "mesh" : 0,
            "name" : "\u30e2\u30f3\u30ad\u30fc"
        }
    ],
    "materials" : [
        {
            "doubleSided" : true,
            "name" : "\u30de\u30c6\u30ea\u30a2\u30eb.005",
            "pbrMetallicRoughness" : {
                "baseColorFactor" : [
                    1,
                    0,
                    0,
                    1
                ]
            }
        }
    ],
    "meshes" : [
        {
            "name" : "\u30e2\u30f3\u30ad\u30fc.002",
            "primitives" : [
                {
                    "attributes" : {
                        "POSITION" : 0,
                        "NORMAL" : 1,
                        "TEXCOORD_0" : 2
                    },
                    "indices" : 3,
                    "material" : 0
                }
            ]
        }
    ],
    "accessors" : [
        {
            "bufferView" : 0,
            "componentType" : 5126,
            "count" : 1975,
            "max" : [
                1.3671875,
                0.984375,
                0.8515625
            ],
            "min" : [
                -1.3671875,
                -0.984375,
                -0.8515625
            ],
            "type" : "VEC3"
        },
        {
            "bufferView" : 1,
            "componentType" : 5126,
            "count" : 1975,
            "type" : "VEC3"
        },
        {
            "bufferView" : 2,
            "componentType" : 5126,
            "count" : 1975,
            "type" : "VEC2"
        },
        {
            "bufferView" : 3,
            "componentType" : 5123,
            "count" : 2904,
            "type" : "SCALAR"
        }
    ],
    "bufferViews" : [
        {
            "buffer" : 0,
            "byteLength" : 23700,
            "byteOffset" : 0
        },
        {
            "buffer" : 0,
            "byteLength" : 23700,
            "byteOffset" : 23700
        },
        {
            "buffer" : 0,
            "byteLength" : 15800,
            "byteOffset" : 47400
        },
        {
            "buffer" : 0,
            "byteLength" : 5808,
            "byteOffset" : 63200
        }
    ],
    "buffers" : [
        {
            "byteLength" : 69008,
            "uri" : "data:application/octet-stream;base64,"
        }
    ]
}
